<svg xmlns="http://www.w3.org/2000/svg" width="128" height="128" viewBox="0 0 128 128">
	<defs>
		<linearGradient id="t" x1="0" y1="0" x2="1" y2="1">
			<stop offset="0" stop-color="#0b7398" stop-opacity="0.16"/>
			<stop offset="1" stop-color="#0b7398" stop-opacity="0.05"/>
		</linearGradient>
	</defs>
	<rect width="128" height="128" rx="28" fill="#fbfaff"/>
	<rect width="128" height="128" rx="28" fill="url(#t)"/>
	<rect x="0.5" y="0.5" width="127" height="127" rx="27.5" fill="none" stroke="#2e1c6e" stroke-opacity="0.12"/>
	<g transform="translate(32 32) scale(2.6666666666666665)" fill="none" stroke="#0b7398" stroke-width="2" stroke-linecap="round" stroke-linejoin="round"><path d="M12 22v-5"/><path d="M15 8V2"/><path d="M17 8a1 1 0 0 1 1 1v4a4 4 0 0 1-4 4h-4a4 4 0 0 1-4-4V9a1 1 0 0 1 1-1z"/><path d="M9 8V2"/></g>
</svg>
