<svg xmlns="http://www.w3.org/2000/svg" width="128" height="128" viewBox="0 0 128 128">
	<defs>
		<linearGradient id="t" x1="0" y1="0" x2="1" y2="1">
			<stop offset="0" stop-color="#fde047" stop-opacity="0.34"/>
			<stop offset="1" stop-color="#fde047" stop-opacity="0.16"/>
		</linearGradient>
	</defs>
	<rect width="128" height="128" rx="28" fill="#fbfaff"/>
	<rect width="128" height="128" rx="28" fill="url(#t)"/>
	<rect x="0.5" y="0.5" width="127" height="127" rx="27.5" fill="none" stroke="#2e1c6e" stroke-opacity="0.12"/>
	<g transform="translate(32 32) scale(2.6666666666666665)" fill="none" stroke="#796906" stroke-width="2" stroke-linecap="round" stroke-linejoin="round"><path d="m12.296 3.464 3.02 3.956"/><path d="M20.2 6 3 11l-.9-2.4c-.3-1.1.3-2.2 1.3-2.5l13.5-4c1.1-.3 2.2.3 2.5 1.3z"/><path d="M3 11h18v8a2 2 0 0 1-2 2H5a2 2 0 0 1-2-2z"/><path d="m6.18 5.276 3.1 3.899"/></g>
</svg>
