<svg xmlns="http://www.w3.org/2000/svg" width="128" height="128" viewBox="0 0 128 128">
	<defs>
		<linearGradient id="t" x1="0" y1="0" x2="1" y2="1">
			<stop offset="0" stop-color="#86efac" stop-opacity="0.34"/>
			<stop offset="1" stop-color="#86efac" stop-opacity="0.16"/>
		</linearGradient>
	</defs>
	<rect width="128" height="128" rx="28" fill="#fbfaff"/>
	<rect width="128" height="128" rx="28" fill="url(#t)"/>
	<rect x="0.5" y="0.5" width="127" height="127" rx="27.5" fill="none" stroke="#2e1c6e" stroke-opacity="0.12"/>
	<g transform="translate(32 32) scale(2.6666666666666665)" fill="none" stroke="#0c7d46" stroke-width="2" stroke-linecap="round" stroke-linejoin="round"><path d="M21 8a2 2 0 0 0-1-1.73l-7-4a2 2 0 0 0-2 0l-7 4A2 2 0 0 0 3 8v8a2 2 0 0 0 1 1.73l7 4a2 2 0 0 0 2 0l7-4A2 2 0 0 0 21 16Z"/><path d="m3.3 7 8.7 5 8.7-5"/><path d="M12 22V12"/></g>
</svg>
